<svg xmlns="http://www.w3.org/2000/svg" version="1.1" xmlns:xlink="http://www.w3.org/1999/xlink" xmlns:svgjs="http://svgjs.dev/svgjs" width="1800" height="1080" preserveAspectRatio="none" viewBox="0 0 1800 1080"><g mask="url(&quot;#SvgjsMask1114&quot;)" fill="none"><rect width="1800" height="1080" x="0" y="0" fill="rgba(0, 31, 23, 1)"></rect><path d="M0,475.816C97.15,480.189,190.405,468.749,283.777,441.566C409.043,405.097,568.765,402.219,636.276,290.577C702.956,180.309,632.685,38.719,603.243,-86.733C576.192,-201.996,549.797,-319.742,472.08,-409.059C394.449,-498.277,287.901,-563.766,171.246,-583.209C60.69,-601.636,-40.195,-532.244,-150.584,-512.842C-279.183,-490.239,-432.371,-545.767,-530.681,-459.838C-628.735,-374.133,-626.572,-221.099,-633.168,-91.036C-639.307,30,-637.92,160.63,-567.139,259.004C-499.91,352.442,-375.342,375.634,-267.821,416.738C-180.663,450.058,-93.216,471.62,0,475.816" fill="#00140f"></path><path d="M1800 1556.844C1891.144 1549.549 1973.772 1517.097 2057.925 1481.339 2158.849 1438.455 2273.143 1413.245 2340.883 1327.013 2415.674 1231.806 2455.066 1107.837 2446.186 987.092 2437.025 862.525 2371.307 750.198 2291.404 654.196 2210.365 556.829 2109.909 474.17100000000005 1988.682 437.408 1866.867 400.467 1725.925 387.047 1614.717 448.98400000000004 1507.839 508.509 1488.538 649.889 1422.393 752.8009999999999 1367.554 838.123 1268.259 901.22 1259.125 1002.234 1250.0700000000002 1102.366 1331.181 1183.609 1375.266 1273.97 1418.0430000000001 1361.65 1432.905 1470.786 1514.103 1524.864 1595.566 1579.118 1702.436 1564.653 1800 1556.844" fill="#002a1f"></path></g><defs><mask id="SvgjsMask1114"><rect width="1800" height="1080" fill="#ffffff"></rect></mask></defs></svg>